# xmcd
#
# Track frame offsets:
#	150
#	10362
#	22620
#	34050
#	45462
#	58725
#	69807
#	80745
#	92975
#	106637
#	123350
#	133875
#	146530
#	159770
#	171682
#	184250
#	199270
#	212512
#
# Disc length: 3146 seconds
#
# Revision: 4
# Processed by: cddbd v1.4PL0 Copyright (c) Steve Scherf et al.
# Submitted via: MusicWizard 6.0.1
#
DISCID=f30c4812
DTITLE=John Lee Hooker - Blues For Life [CD 1/2)
DYEAR=1900
DGENRE=Blues
TTITLE0=Dimples
TTITLE1=Walking The Boogie
TTITLE2=Boom Boom
TTITLE3=Boogie Chillum
TTITLE4=One Bourbon, One Scotch, One Beer
TTITLE5=Please Don't Go
TTITLE6=No Shoes
TTITLE7=I'm In The Mood
TTITLE8=Tease Me Baby
TTITLE9=My First Wife Left Me
TTITLE10=Want Ad Blues
TTITLE11=Hobo Blues
TTITLE12=Down At The Landing
TTITLE13=Whiskey And Wimmen
TTITLE14=Leave My Wife Alone
TTITLE15=Ramblin' By Myself
TTITLE16=Union Station Blues
TTITLE17=The Waterfront
EXTD=
EXTT0=
EXTT1=
EXTT2=
EXTT3=
EXTT4=
EXTT5=
EXTT6=
EXTT7=
EXTT8=
EXTT9=
EXTT10=
EXTT11=
EXTT12=
EXTT13=
EXTT14=
EXTT15=
EXTT16=
EXTT17=
PLAYORDER=
